<svg width="430" height="932" viewBox="0 0 430 932" fill="none" xmlns="http://www.w3.org/2000/svg">
<g clip-path="url(#clip0_36_5739)">
<rect width="430" height="932" fill="white"/>
<path d="M-490 748H442V933H-490V748Z" fill="#527956"/>
<path d="M-472 932.002V847.002L-385 882.502L-344 890.002H-304.5H-270L-235 882.502L-207.5 872.502C-194.79 867.997 -182.209 865.705 -139 862.502C-139 862.502 -103.782 852.285 -108 852.502C-112.218 852.719 -78.8492 843.821 -64 839.502C-64 839.502 -43 833.14 -31 827.502C-19 821.864 -5 827.502 10 819.502C25 811.502 43 814.002 54 811.002C65 808.002 76.3882 813.243 88.5 811.002L122.5 802.002C133.116 797.367 138.144 794.68 169 792.002L202 782.002C226.147 778.336 252.609 768.644 261.5 762.002C270.391 755.359 342.367 747.867 380.5 748.002H463.5L-304.5 932.002H-472Z" fill="#44AC55"/>
<path d="M-122 879.5L-180 898.5C-205.432 902.74 -220.076 906.557 -246.5 914.5L-333 935H459V748H448.5L405.5 755H365L307.5 765.5C307.5 765.5 271.317 773.929 253.5 783C235.683 792.071 218.872 794.001 198.5 802C176.233 806.655 163.543 811.342 137 823.5L90 831.5H64.5L36 839.5L-15 849L-68.5 865L-122 879.5Z" fill="#E9D2C1"/>
<path d="M434.474 785.103C446.317 783.273 458.611 792.981 459 804.162V934H334.036H314.182C314.182 934 306.007 930 306.007 924.471C306.007 918.941 299 921 299 910.176C299 899.353 301.815 899.986 299 892.309C300.549 886.623 300.612 883.137 306.007 874.441C313.225 864.561 318.047 862.403 328.197 866.103C329.355 859.02 331.928 856.751 342.212 857.765C336.596 854.71 336.596 852.623 342.212 848.235C335.349 844.726 333.348 841.953 342.212 831.559C338.038 824.276 336.569 820.296 348.051 814.882C346.07 804.69 347.163 800.189 357.818 797.015C356.796 783.077 363.586 780.542 373 777.956C377.906 773.13 381.64 771.755 390.5 772C399.016 767.834 402.941 768.142 408.781 772C420.802 771.582 427.5 766.5 434.474 785.103Z" fill="#2C7D03"/>
<path d="M451 806C455.438 810.314 460.769 822.155 459 822.858V935H335.852C336.237 935.811 327.945 932.462 326 930C324.055 927.538 323.5 923.5 323 921.5C322.5 919.5 326 911 326 911L330.926 904.628C330.926 904.628 329.5 901 330.926 897.113C332.352 893.227 335.852 893.494 335.852 893.494V883C335.852 877 346 877 346 877C346 877 346 871 350 867C354 863 359.25 863 359.25 863C359.25 863 353 856.5 356 851C359 845.5 362.5 842.5 362.5 842.5C362.5 842.5 359.25 834 362.5 826.5C365.75 819 380.185 822.858 380.185 822.858C380.185 822.858 373 810.5 382.5 806C392 801.5 398.657 808.841 398.657 808.841C398.657 808.841 392 792.5 405.5 788.5C419 784.5 423 795 423 795C423 795 435 799.5 434 804.5C433 809.5 446.562 801.686 451 806Z" fill="#2BAD38"/>
<ellipse cx="432.5" cy="906" rx="4.5" ry="5" fill="#CB204D"/>
<ellipse cx="363.5" cy="882" rx="2.5" ry="3" fill="#CB204D"/>
<ellipse cx="414.5" cy="797" rx="4.5" ry="5" fill="#CB204D"/>
<ellipse cx="395.5" cy="832" rx="4.5" ry="5" fill="#CB204D"/>
<ellipse cx="340.5" cy="880" rx="4.5" ry="5" fill="#CB204D"/>
<ellipse cx="426" cy="859" rx="7" ry="8" fill="#CB204D"/>
<ellipse cx="366.5" cy="906" rx="5.5" ry="5" fill="#CB204D"/>
<path d="M-281.5 925.5C-295.094 926.194 -304.391 928.153 -323 933.5H-58L-47.5 925.5L-40 917L-29 910C-18.8207 908.464 -16.4573 906.406 -11.5 903L-7.5 891.5L-0.5 882.5C3.74457 881.289 6.15442 880.326 11 874.5C21.4089 873.661 26.0782 872.48 33 869.5C41.6334 864.794 46 864 54 857.5C62 851 40.5 856.5 39.5 854.031C38.5 851.563 18 852.062 18 854.031C18 856 1.19995 859.622 -11.5 862.5C-11.5 862.5 -43.5 860 -58 869.5C-72.5 879 -96 874.5 -96 874.5C-96 874.5 -118 877.5 -118.5 882.5C-119 887.5 -136.5 888.5 -136.5 888.5C-136.5 888.5 -153.5 895 -157.5 894.5C-161.5 894 -185 903 -185 903C-191.328 901.723 -215.793 906.111 -226.5 910C-231.012 911.639 -239.5 914.667 -243 917C-255.942 919.219 -264.267 921.014 -281.5 925.5Z" fill="#D6B599"/>
<path d="M282.5 793.5C289.139 797.855 292.878 800.284 304 801H315.5L325.5 797H333.5L337.5 801L333.5 808.5L325.5 811.5L315.5 816L310.5 819L307 826H297C297 826 291 832 286 826C281 820 272 822.5 272 822.5C271.097 827.291 265.211 825.63 254.5 822.5C254.5 822.5 251 826 246.5 829C242 832 231.5 829 231.5 829C224.727 831.563 220.791 830.761 213.5 826V816L219.5 808.5H235.5L250 801C254.009 795.515 258.195 794.201 267.5 793.5H282.5Z" fill="#D6B599"/>
<path d="M261.5 612H247.5L222.5 607.5L201 612L178.5 627V607.5L189.5 595L214.5 589.5L236.5 595L247.5 612L236.5 589.5L222.5 578L201 571.5L178.5 578L160.5 589.5V571.5L173 558L194.5 552H214.5L236.5 558L247.5 578V612L253.5 578L268 566L284 558H303.5H322.5L334 566L342 578V589.5L322.5 585L308 578H294.5L279.5 585H268L261.5 600V612L279.5 595L294.5 589.5H303.5L322.5 600L334 612L342 632.5V643L328.5 632.5L317 620H303.5L294.5 612H272.5H261.5Z" fill="#59BB41"/>
<path d="M245 593L247 611H241.5L233.5 609.5L228 608H222.5H218.5L212.5 610L204.5 611L199 613L194.5 615.5L192 618L187 621L188.5 618V615.5L190.5 613L192 610L194.5 606.5L201 605L206.5 603H212.5H220H228L235 605L241.5 606.5L247 611L237 590L222.5 577.5L201 571L177.5 578.5L167 585.5L169.5 579.5L172.5 572.5L176.5 566.5L190.5 561.5H204.5L216 563L228 566.5L235 572.5L241.5 582L245 593Z" fill="#2F9451"/>
<path d="M261 611L257.5 599.5L261 585.5L265.5 579.5L271 577.5L277 574.5L285.5 572.5H291.5H300L308.5 574.5L315.5 579.5L321 584L310 579L302.5 577.5H294.5L287 581L280 584H274.5L269.5 584.5L265.5 590L263 597L261 599.5V611L265.5 608L268 605.75L271 603L274.5 599.5L280 594.5L285.5 593L290 590H297H305.5L308.5 593L312.5 594.5L318 597L321 599.5L326.5 605.75L324 605L321 603L315.5 601L310 599.5H305.5H300H294.5L290 601L285.5 603L280 605L274.5 606.5L271 609.5L268 611.5L261 611Z" fill="#2F9451"/>
<path d="M242 748C254.024 702.709 254.503 672.479 247 612H263L263.137 612.606C278.261 679.404 285.009 709.205 269.5 748H242Z" fill="#5E3A3A" fill-opacity="0.67"/>
<path d="M405.534 675.308H397.975L384.477 672.885L372.868 675.308L360.719 683.385V672.885L366.658 666.154L380.157 663.192L392.036 666.154L397.975 675.308L392.036 663.192L384.477 657L372.868 653.5L360.719 657L351 663.192V653.5L357.749 646.231L369.358 643H380.157L392.036 646.231L397.975 657V675.308L401.215 657L409.044 650.538L417.683 646.231H428.212H438.471L444.68 650.538L449 657V663.192L438.471 660.769L430.642 657H423.353L415.253 660.769H409.044L405.534 668.846V675.308L415.253 666.154L423.353 663.192H428.212L438.471 668.846L444.68 675.308L449 686.346V692L441.711 686.346L435.501 679.615H428.212L423.353 675.308H411.474H405.534Z" fill="#59BB41"/>
<path d="M396.889 664.941L397.963 674.622H395.009L390.713 673.815L387.759 673.008H384.806H382.657L379.435 674.084L375.139 674.622L372.185 675.697L369.769 677.042L368.426 678.387L365.741 680L366.546 678.387V677.042L367.62 675.697L368.426 674.084L369.769 672.202L373.259 671.395L376.213 670.319H379.435H383.463H387.759L391.519 671.395L395.009 672.202L397.963 674.622L392.593 663.328L384.806 656.605L373.259 653.109L360.639 657.143L355 660.908L356.343 657.681L357.954 653.916L360.102 650.689L367.62 648H375.139L381.315 648.807L387.759 650.689L391.519 653.916L395.009 659.025L396.889 664.941Z" fill="#2F9451"/>
<path d="M405.481 674.622L403.602 668.437L405.481 660.908L407.898 657.681L410.852 656.605L414.074 654.992L418.639 653.916H421.861H426.426L430.991 654.992L434.75 657.681L437.704 660.101L431.796 657.412L427.769 656.605H423.472L419.444 658.487L415.685 660.101H412.731L410.046 660.37L407.898 663.328L406.556 667.092L405.481 668.437V674.622L407.898 673.008L409.241 671.798L410.852 670.319L412.731 668.437L415.685 665.748L418.639 664.941L421.056 663.328H424.815H429.38L430.991 664.941L433.139 665.748L436.093 667.092L437.704 668.437L440.657 671.798L439.315 671.395L437.704 670.319L434.75 669.244L431.796 668.437H429.38H426.426H423.472L421.056 669.244L418.639 670.319L415.685 671.395L412.731 672.202L410.852 673.815L409.241 674.891L405.481 674.622Z" fill="#2F9451"/>
<path d="M395 749C401.622 724.69 401.886 708.463 397.754 676H406.565L406.641 676.325C414.97 712.18 418.686 728.176 410.145 749H395Z" fill="#5E3A3A" fill-opacity="0.67"/>
<path d="M402 678C402 680.761 399.985 683 397.5 683C395.015 683 393 680.761 393 678C393 675.239 395.015 673 397.5 673C399.985 673 402 675.239 402 678Z" fill="#825757"/>
<path d="M408 676.5C408 678.433 406.433 680 404.5 680C402.567 680 401 678.433 401 676.5C401 674.567 402.567 673 404.5 673C406.433 673 408 674.567 408 676.5Z" fill="#825757"/>
<path fill-rule="evenodd" clip-rule="evenodd" d="M423.424 576.007C423.615 576.002 423.807 576 424 576C434.493 576 443 582.94 443 591.5C443 600.06 434.493 607 424 607C420.067 607 416.414 606.025 413.382 604.356C410.079 608.93 403.979 612 397 612C390.021 612 383.921 608.93 380.618 604.356C377.586 606.025 373.933 607 370 607C359.507 607 351 600.06 351 591.5C351 582.94 359.507 576 370 576C370.271 576 370.54 576.005 370.808 576.014C373.166 569.641 380.419 565 389 565C393.819 565 398.22 566.464 401.569 568.876C403.949 566.464 407.076 565 410.5 565C416.595 565 421.747 569.638 423.424 576.007Z" fill="white" fill-opacity="0.5"/>
<path d="M250.5 642.5L250 638L268.5 637.5L272.5 655H251.5L251 651.5V647L250.5 642.5Z" fill="#7D3D3D" fill-opacity="0.22"/>
<path d="M276 677H252V683.5V689.5L251.5 696L251 701H278.5L278 694.5L277.5 688.5L277 681.5L276 677Z" fill="#7D3D3D" fill-opacity="0.22"/>
<path d="M277 722H248L246.5 729.5L244.5 738.5L242 747.5H269.5L273 738.5L275 731.5L277 722Z" fill="#7D3D3D" fill-opacity="0.22"/>
<path d="M396.5 743.5L397.5 738.5H413.5L412 744L410 749H395L396.5 743.5Z" fill="#7D3D3D" fill-opacity="0.22"/>
<path d="M415 724H400L400.5 717.5V713H414.5V715.5L415 720.5V724Z" fill="#7D3D3D" fill-opacity="0.22"/>
<path d="M412 700H400V696L399.5 693V689H409.5L410 691L411 696L412 700Z" fill="#7D3D3D" fill-opacity="0.22"/>
<rect width="430" height="680" fill="url(#paint0_linear_36_5739)"/>
<path d="M269 614.5C269 618.09 266.09 621 262.5 621C258.91 621 256 618.09 256 614.5C256 610.91 258.91 608 262.5 608C266.09 608 269 610.91 269 614.5Z" fill="#825757"/>
<path d="M256 612.5C256 617.194 252.194 621 247.5 621C242.806 621 239 617.194 239 612.5C239 607.806 242.806 604 247.5 604C252.194 604 256 607.806 256 612.5Z" fill="#825757"/>
<path fill-rule="evenodd" clip-rule="evenodd" d="M86.4241 348.007C86.6154 348.002 86.8074 348 87 348C97.4934 348 106 354.94 106 363.5C106 372.06 97.4934 379 87 379C83.0673 379 79.4137 378.025 76.3824 376.356C73.0791 380.93 66.979 384 60 384C53.021 384 46.9209 380.93 43.6176 376.356C40.5863 378.025 36.9327 379 33 379C22.5066 379 14 372.06 14 363.5C14 354.94 22.5066 348 33 348C33.2707 348 33.5401 348.005 33.808 348.014C36.1663 341.641 43.4188 337 52 337C56.8194 337 61.2197 338.464 64.5692 340.876C66.9492 338.464 70.0757 337 73.5 337C79.595 337 84.7466 341.638 86.4241 348.007Z" fill="white" fill-opacity="0.5"/>
<path fill-rule="evenodd" clip-rule="evenodd" d="M147.424 365.007C147.615 365.002 147.807 365 148 365C158.493 365 167 371.94 167 380.5C167 389.06 158.493 396 148 396C144.067 396 140.414 395.025 137.382 393.356C134.079 397.93 127.979 401 121 401C114.021 401 107.921 397.93 104.618 393.356C101.586 395.025 97.9327 396 94 396C83.5066 396 75 389.06 75 380.5C75 371.94 83.5066 365 94 365C94.2707 365 94.5401 365.005 94.808 365.014C97.1663 358.641 104.419 354 113 354C117.819 354 122.22 355.464 125.569 357.876C127.949 355.464 131.076 354 134.5 354C140.595 354 145.747 358.638 147.424 365.007Z" fill="white" fill-opacity="0.5"/>
<path fill-rule="evenodd" clip-rule="evenodd" d="M132.424 87.007C132.615 87.0023 132.807 87 133 87C143.493 87 152 93.9396 152 102.5C152 111.06 143.493 118 133 118C129.067 118 125.414 117.025 122.382 115.356C119.079 119.93 112.979 123 106 123C99.021 123 92.9209 119.93 89.6176 115.356C86.5863 117.025 82.9327 118 79 118C68.5066 118 60 111.06 60 102.5C60 93.9396 68.5066 87 79 87C79.2707 87 79.5401 87.0046 79.808 87.0138C82.1663 80.6408 89.4188 76 98 76C102.819 76 107.22 77.4638 110.569 79.8761C112.949 77.4638 116.076 76 119.5 76C125.595 76 130.747 80.6375 132.424 87.007Z" fill="white" fill-opacity="0.5"/>
<path fill-rule="evenodd" clip-rule="evenodd" d="M364.424 271.007C364.615 271.002 364.807 271 365 271C375.493 271 384 277.94 384 286.5C384 295.06 375.493 302 365 302C361.067 302 357.414 301.025 354.382 299.356C351.079 303.93 344.979 307 338 307C331.021 307 324.921 303.93 321.618 299.356C318.586 301.025 314.933 302 311 302C300.507 302 292 295.06 292 286.5C292 277.94 300.507 271 311 271C311.271 271 311.54 271.005 311.808 271.014C314.166 264.641 321.419 260 330 260C334.819 260 339.22 261.464 342.569 263.876C344.949 261.464 348.076 260 351.5 260C357.595 260 362.747 264.638 364.424 271.007Z" fill="white" fill-opacity="0.5"/>
<path d="M113.8 783.817L86.9636 792L85 708.204V703.294L107.582 683H132.127L154.382 701.003L157 774.979L151.109 776.616L137.036 779.889L113.8 783.817Z" fill="#A6AEB9"/>
<path d="M10 777.652V703.304V702L85.725 708.196L88 792L10 777.652Z" fill="#DEE2E8"/>
<path d="M4 702.14V704.93H8.66667H12L17.6667 708.07H22.3333H26L32 709.814L36.6667 708.07H40L45.3333 709.814H50.3333H59.6667L68.6667 712.256L80.6667 714L84.6667 708.07L90 709.814L94 704.93L102 696.907L108 690.628L116.667 681.209L130 670.744L114.333 669H102H90H77.3333H66H54.3333H45.3333L42.6667 673.884L40 676.326L36.6667 681.209L30.3333 687.488L22.3333 693.07L17.6667 696.907L12 700.395L7 702.14H4Z" fill="#D6B599"/>
<path d="M134.523 675.194L130.939 671H130.288L122.795 676.484L116.932 681L114 684.548H116.932H119.864H124.098H127.03H130.288L131.917 685.516L133.545 686.806L135.5 689.065L137.455 691.323L139.409 693.581L143.318 695.839L144.947 698.097L147.553 700.032L150.485 701H153.417H157L156.023 700.032L155.045 699.065L153.417 697.452L152.114 695.839L150.485 694.226L148.205 691.323L146.576 690.032L144.295 686.806L141.689 682.935L139.409 681L137.455 678.742L134.523 675.194Z" fill="#442810"/>
<path d="M108 728.216L110.273 784L133 780.108L130.727 724L108 728.216Z" fill="#030C2C" stroke="black"/>
<path d="M55.3893 674H43L45.597 669H50.6841H63.1269H89.3338H104.458H114.876L121.262 670.071L130 671.143L126.975 674H120.254H114.876H109.499H103.113H98.072H91.0142H85.6369H76.8987H70.5131H63.7914H55.3893Z" fill="#C6AA92"/>
</g>
<defs>
<linearGradient id="paint0_linear_36_5739" x1="215" y1="0" x2="215" y2="680" gradientUnits="userSpaceOnUse">
<stop stop-color="#BEE0FF"/>
<stop offset="1" stop-color="#96CDFF" stop-opacity="0"/>
</linearGradient>
<clipPath id="clip0_36_5739">
<rect width="430" height="932" fill="white"/>
</clipPath>
</defs>
</svg>
